<?xml version="1.0" encoding="UTF-8"?>
<svg id="Layer_1" data-name="Layer 1" xmlns="http://www.w3.org/2000/svg" viewBox="0 0 114.69 152.09">
  <defs>
    <style>
      .cls-1 {
        fill: #fff;
      }
    </style>
  </defs>
  <path class="cls-1" d="M84.45,139.72c-.53.64-.3,2.85-1.13,4.25-5.19,8.84-26.95,8.79-35.72,7.48-4.91-.73-15.31-3.32-16.93-8.72-.26-.88-.27-2.83-.62-3.24-.2-.23-4.22-2.37-5.06-2.94-9.77-6.66-17.05-15.7-21.15-26.83-2.12-5.76-5.32-18.97-3.08-24.6,3.6-9.04,21.19-13.4,29.82-15.13.94-.19,3.46-.27,3.82-.86l8.59-28.08c-.07-1.27.12-2.57-.03-3.83-.17-1.46-1.37-2.99-1.36-4.17,0-1.04.91-1.48.85-3.31-.27-7.86-1.97-16.05-2.2-23.96.43-1.75,1.72-3.08,3.28-3.89,4.67-2.43,21.02-2.37,26.01-.61,2.4.85,5,2.82,4.91,5.6-.25,7.6-2.24,16.15-2.23,23.71,0,1.08.9,1.92.85,3.02-.07,1.58-2.24,4.43-1.4,6.62l8.68,29.1c8.74,1.78,18.69,3.6,26.32,8.43,9.58,6.06,8.68,12.17,6.79,22.46-2.7,14.65-10.55,26.95-22.67,35.52-1.12.79-5.93,3.47-6.35,3.99ZM69.2,5.9c-.29-.31-3.38-.97-4.03-1.07-3.75-.57-9.38-.58-13.2-.31-2.09.15-4.16.73-6.21,1.1-.12.63.04.44.35.61.96.54,3.55.86,4.75,1.04.99.14,4.38-.22,4.56.97.24,1.54-1.08,1.93-2.36,2.06-2.72.28-5.64-.32-8.13-1.38.27,5.55.48,11.16,1.1,16.68.12,1.05.51,5.29,1.11,5.79,6.61,1.6,14.52,2.21,20.88-.48l1.73-21.44c-.32-.31-4.19.9-5.05.78-1.06-.16-2.1-1.68-1.11-2.45.81-.63,3.94-.74,5.22-1.33.24-.11.83-.1.39-.57ZM68.1,34.3c-6.87,1.95-14.39,2.34-21.23,0,.01,2.57,1.05,5.15.28,7.7,4.11,1.7,8.94,1.98,13.37,1.67,1.31-.09,5.36-.74,6.41-1.31,1.1-.6.53-3.33.63-4.61.09-1.14.65-2.27.54-3.45ZM46.31,46.43c-.59-.11-.64.27-.84.67-.43.85-.84,2.53-1.16,3.53-2.69,8.31-9.12,26.64-9.2,34.59-.04,3.85.9,9.57,5.68,9.61-3.39-9.97.43-21.05,2.35-31.02,1.11-5.78,2.08-11.6,3.16-17.38ZM69.2,46.43l-.81.66,5.97,29.89c.81,5.9,1.7,12.12-.48,17.84,0,.68,2.48-.66,2.74-.84,4.28-3,2.96-11.51,1.87-15.9l-9.3-31.65ZM48.79,96.34c-1.51-4.72-1.33-10.61-1.11-15.59.45-10.28,2.85-20.91,3.32-31.15.03-.55.19-1.77-.41-2.06-.48-.23-.58.66-.69.96-.48,1.39-.93,3.07-1.3,4.5-2.37,9.25-7.41,29.13-5.84,37.94.66,3.71,2,5.52,6.03,5.41ZM65.89,96.34c3.9.16,5.24-1.69,5.94-5.22,1.75-8.84-3.36-28.8-5.8-38.07-.2-.75-1.44-5.49-1.93-5.51-.64.54-.44,1.58-.41,2.34.61,13.83,4.38,27.82,3.3,41.91-.12,1.58-.53,3.09-1.1,4.55ZM55.41,48.09h-.82c-.19,1.63-.56,3.24-.79,4.87-1.08,7.63-2.09,16.01-2.8,23.68-.5,5.42-1.48,14.89.99,19.68,1.12,2.17,4.77,4.46-.55,4.13-2.74-.17-5.65-1.1-8.34-1.59-2.27-.42-3.32.03-5.72-1.17-3.93-1.97-4.9-5.17-6.14-9.08-4.65.84-9.48,2.05-13.72,4.19-.91.46-6.7,3.96-6.12,4.93,8.4,4.99,19.07,7.44,28.74,8.78,16.83,2.33,38.34,1.3,54.36-4.57,1.54-.56,7.56-3.02,8.36-4.06s-2.88-3.4-3.8-3.96c-2.56-1.55-6.03-2.91-8.91-3.78-1.2-.36-5.25-1.55-6.22-1.49-1.14.06-1.7,3.63-2.19,4.66-1.39,2.95-4.64,4.91-7.8,5.44-.82.14-1.65-.04-2.38.1-2.87.54-6.78,1.81-9.68,1.66-3.45-.18-.16-2.67.47-3.69,2.88-4.59,1.81-14.81,1.32-20.18-.44-4.86-1.1-9.99-1.69-14.86-.55-4.57-1.16-9.14-1.9-13.69-1.04-.33-1.05.87-1.11,1.78-1,14.4.61,29.8-.27,44.41-.06,1.07-.39,2.33-.39,3.47-.29.41-1.68.4-1.97,0l-.95-49.66ZM33.08,74.01c-.31-.29-6.17,1.06-7.12,1.29-5.89,1.42-17.59,5.01-20.41,10.75-1.51,3.08-.43,8.09,3.07,9.16,5.73-5.98,14.1-9.17,22.21-10.21l2.25-10.99ZM107.16,83.48c-5.79-5.7-17.77-8.01-25.55-9.47l2.24,11c8.18,1.18,16.79,4.27,22.44,10.51,4.37-3.29,4.81-8.15.87-12.03ZM4.95,98c3.31,21.12,18.37,37.42,39.38,41.83,23.4,4.91,47.8-3.13,59.66-24.55,2.95-5.33,5.09-11.55,5.61-17.56-9.14,8.28-23.05,11.63-35.06,13.2-21.52,2.81-46.07.8-65.33-9.61l-4.27-3.31ZM79.68,141.3c-12.55,4.54-26.64,5.11-39.55,1.63-1.71-.46-3.38-1.31-5.13-1.49.6,1.23,1.89,2.1,3.03,2.76,8.69,4.97,30.69,5.28,39.14-.31.34-.23,2.94-2.17,2.51-2.59Z"/>
  <path class="cls-1" d="M24.73,97.22c1.21-.36,3.46,1.56,4.66,2.13,6.51,3.05,16.22,4.48,23.41,4.72,3.13.11,7.69-.79,10.47-.27.62.12,1.34.8,1.23,1.47-.18.6-2.07,1.07-2.68,1.2-8.67,1.86-28.1-.32-35.44-5.49-.86-.61-3.78-3.13-1.65-3.76Z"/>
</svg>